# xmcd
#
# Track frame offsets:
#	150
#	17642
#	49703
#	67324
#	80837
#	100149
#	114885
#	139879
#	152747
#	173838
#	193019
#	210219
#	230585
#	264718
#
# Disc length: 3741 seconds
#
# Revision: 7
# Processed by: cddbd v1.5.2PL0 Copyright (c) Steve Scherf et al.
# Submitted via: audiograbber 1.83.01
#
DISCID=c10e9b0e
DTITLE=Bob Marley - Legend
DYEAR=1995
DGENRE=Reagge
TTITLE0=Is This Love?
TTITLE1=No Woman No Cry
TTITLE2=Could You Be Loved
TTITLE3=Three Little Birds
TTITLE4=Buffalo Soldier
TTITLE5=Get up stand up
TTITLE6=Stir It Up
TTITLE7=One Love ( People Get Ready )
TTITLE8=I Shot The Sheriff
TTITLE9=Waiting In Vain
TTITLE10=Redemption Song
TTITLE11=Satisfy My Soul
TTITLE12=Exodus
TTITLE13=Jamming
EXTD=f YEAR: 1995
EXTT0=
EXTT1=
EXTT2=
EXTT3=
EXTT4=
EXTT5=
EXTT6=
EXTT7=
EXTT8=
EXTT9=
EXTT10=
EXTT11=
EXTT12=
EXTT13=
PLAYORDER=
